<svg id="Ebene_1" data-name="Ebene 1" xmlns="http://www.w3.org/2000/svg" viewBox="0 0 297.32 101.63"><defs><style>.cls-1{fill:#fff;}.cls-2{fill:#ea5b0c;}</style></defs><title>claim</title><path class="cls-1" d="M100,33.78l-5-5.88c-.73-.86-1.33-1.59-1.81-2.18s-.9-1.08-1.25-1.48-.69-.76-1-1.08a14.28,14.28,0,0,0-1.17-1l1-.87a11.13,11.13,0,0,0,1.23-1.19c.42-.48.9-1,1.41-1.68s1.07-1.4,1.67-2.29l3.54-5.27H91.14L84.49,21.15V0H78.13V33.78h6.36V23.35L92,33.78Zm-24.42-23-1.1-.17a6.2,6.2,0,0,0-1-.07A7.17,7.17,0,0,0,69,12a7,7,0,0,0-2.49,4.09V10.86H60.35V33.78h6.37V23.45a8,8,0,0,1,1.58-5.22,5.29,5.29,0,0,1,4.3-1.91,7.39,7.39,0,0,1,1.51.14,8.38,8.38,0,0,1,1.51.53ZM49.44,29.67c-.54.09-1,.16-1.46.19s-.92.05-1.46.05q-4.87,0-4.88-3.07,0-4,7.8-4Zm6.08-10.34a18.4,18.4,0,0,0-.31-3.71,5.75,5.75,0,0,0-1.08-2.37c-1.57-1.94-4.13-2.91-7.71-2.91a21.52,21.52,0,0,0-4.78.55,19.94,19.94,0,0,0-4.4,1.5v4.55a18.32,18.32,0,0,1,4-1.48,16.79,16.79,0,0,1,4.07-.53q4.15,0,4.16,3.44v.87h-1.1a22.89,22.89,0,0,0-5.34.57,13,13,0,0,0-4,1.65,7.83,7.83,0,0,0-2.58,2.61,6.58,6.58,0,0,0-.91,3.44q0,6.79,10.67,6.8a47.46,47.46,0,0,0,4.9-.26,36.3,36.3,0,0,0,4.48-.75ZM33.11,28.81a12.63,12.63,0,0,1-1.38.24c-.39,0-.82,0-1.3,0a4,4,0,0,1-3.06-1,5.17,5.17,0,0,1-.86-3.41V15.84h6.32V11H26.51V3.54L20.15,7.23V25.74q0,4.46,2.05,6.46t6.61,2q1.14,0,2.1-.09c.64-.07,1.37-.18,2.2-.34ZM15.22,23.69a12.11,12.11,0,0,0-4.5-2.83c-.86-.35-1.58-.67-2.15-.95a7.06,7.06,0,0,1-1.34-.82,2.29,2.29,0,0,1-.67-.76,1.88,1.88,0,0,1-.2-.86,1.91,1.91,0,0,1,.87-1.63,3.7,3.7,0,0,1,2.25-.62,16.6,16.6,0,0,1,2.79.24,37.25,37.25,0,0,1,3.67.86V11.44a36.11,36.11,0,0,0-4.1-.84,25.41,25.41,0,0,0-3.71-.26,9.28,9.28,0,0,0-6,1.74A5.85,5.85,0,0,0,0,16.89a5.37,5.37,0,0,0,1.24,3.52,12,12,0,0,0,4,2.85C6.73,24,7.85,24.55,8.64,25a2.26,2.26,0,0,1,1.17,2A2,2,0,0,1,9,28.81a4.06,4.06,0,0,1-2.39.62,19.68,19.68,0,0,1-3.35-.31A17.34,17.34,0,0,1,0,28.28v4.88a34.74,34.74,0,0,0,4.14.89,27.65,27.65,0,0,0,3.8.26,10,10,0,0,0,6.34-1.79,6,6,0,0,0,2.28-5,5.6,5.6,0,0,0-1.34-3.82"/><path class="cls-1" d="M186.88,34.87c0,.81-.78,1.38-2.13,1.38-1,0-1.78-.43-1.78-1.21a1.41,1.41,0,0,1,.85-1.21h1.68c.93,0,1.38.4,1.38,1m-.45-5.39A1.44,1.44,0,0,1,184.8,31a1.43,1.43,0,0,1-1.63-1.51,1.51,1.51,0,0,1,1.67-1.54,1.43,1.43,0,0,1,1.59,1.54m1.64,5.24c0-1.19-.8-1.88-2.23-1.88h-1.22c-.8,0-1.13-.15-1.13-.52a.61.61,0,0,1,.42-.55,4.36,4.36,0,0,0,.84.08c1.88,0,2.87-1,2.87-2.45a1.62,1.62,0,0,0-.56-1.29h1.11v-.94h-2.24a4.36,4.36,0,0,0-1-.12A2.6,2.6,0,0,0,182,29.6a2,2,0,0,0,1,1.88,1.22,1.22,0,0,0-.75,1.11,1.07,1.07,0,0,0,.66,1,1.94,1.94,0,0,0-1.09,1.71c0,1.26,1.07,1.94,2.77,1.94,2.07,0,3.51-1.09,3.51-2.49m-7-7.67a2.09,2.09,0,0,0-2.28,1.68h0a9.27,9.27,0,0,0,.14-1.56h-1.15v6.6H179V31.11c0-2.11.67-3.13,2.06-2.89Zm-5.57,6.72v-6.6h-1.18v3.17c0,1.46-.8,2.56-1.89,2.56-.86,0-1.13-.54-1.13-1.47V27.17h-1.18v4.62c0,1.17.47,2.11,2,2.11a2.42,2.42,0,0,0,2.33-1.53l0,0a10.55,10.55,0,0,0-.1,1.38Zm-8.33-3.51c0,1.9-.83,2.66-2.09,2.66a4,4,0,0,1-1.17-.16V30.57c0-1.15.61-2.54,1.8-2.54,1,0,1.46.81,1.46,2.23m1.25-.11c0-2-.87-3.1-2.43-3.1a2.26,2.26,0,0,0-2.18,1.47h0a6.07,6.07,0,0,0,.12-1.24v-3.2h-1.2v9.52a8.22,8.22,0,0,0,2.27.27c2.13,0,3.44-1.39,3.44-3.71m-8,3.62V29.2c0-1.49-.71-2.17-2-2.17a2.45,2.45,0,0,0-2.26,1.51A1.65,1.65,0,0,0,154.44,27a2.44,2.44,0,0,0-2.3,1.53h0a8.16,8.16,0,0,0,.1-1.38h-1.15v6.6h1.19V30.62c0-1.51.84-2.59,1.85-2.59s1.08.66,1.08,1.49v4.25h1.18V30.62c0-1.59.9-2.59,1.84-2.59s1.08.58,1.08,1.5v4.24ZM147.6,30.85a2,2,0,0,1-1.79,2.09.9.9,0,0,1-1-.91c0-.6.5-1.3,2.8-1.3Zm1.22,2.92c0-.57,0-1.28,0-1.9V29.24c0-1.32-.55-2.21-2.45-2.21a6.2,6.2,0,0,0-2.31.48l.12,1a4.12,4.12,0,0,1,2-.55c1.09,0,1.45.49,1.45,1.41v.49c-2.49,0-4,.92-4,2.36a1.62,1.62,0,0,0,1.83,1.64,2.37,2.37,0,0,0,2.25-1.44h0a9,9,0,0,0-.06,1.32Zm-6.93,0v-9h-1.22v3.8H136.1V24.8h-1.22v9h1.22V29.64h4.57v4.13Z"/><path class="cls-1" d="M262.05,20.5l-2.73-3.58,2.53-3H260.4l-2.32,2.9v-6h-1.19V20.5h1.19V17.1l2.45,3.4Zm-6.57-6.72a2.09,2.09,0,0,0-2.27,1.69h0a8.59,8.59,0,0,0,.15-1.57h-1.16v6.6h1.2V17.85c0-2.12.66-3.14,2.06-2.9Zm-6.27,2.5h-3.08a1.66,1.66,0,0,1,1.61-1.62,1.43,1.43,0,0,1,1.47,1.62m1.22.28a2.49,2.49,0,0,0-2.64-2.78c-1.87,0-2.95,1.48-2.95,3.46,0,2.32,1.09,3.38,3.12,3.38a5.76,5.76,0,0,0,2.23-.41l-.1-1a4.79,4.79,0,0,1-1.93.41c-1.41,0-2.14-.75-2.08-2.52h4.31a4.31,4.31,0,0,0,0-.57m-6.28-2.66h-1.26l-1.07,3.56c-.2.66-.31,1.14-.45,1.7h0c-.12-.5-.24-.93-.5-1.75l-1.15-3.51h-1.27l-1.13,3.55c-.17.54-.32,1.11-.45,1.7h0c-.13-.52-.3-1.12-.47-1.73l-1-3.52H234l2,6.6h1.33L238.5,17c.18-.56.34-1.08.47-1.66h0c.12.46.24.9.37,1.31l1.32,3.89H242Zm-10.94,4.62c0-2.21-3.09-1.43-3.09-2.88,0-.57.44-.94,1.32-.94a4.57,4.57,0,0,1,1.33.21l0-1a6.75,6.75,0,0,0-1.26-.14c-1.73,0-2.64.87-2.64,2,0,2.33,3.07,1.42,3.07,2.9,0,.61-.6,1-1.48,1a5,5,0,0,1-1.44-.23l0,1.06a7.69,7.69,0,0,0,1.4.12c1.75,0,2.82-.9,2.82-2.1m-6.73,3.08c0,.81-.78,1.39-2.13,1.39-1,0-1.78-.43-1.78-1.21a1.38,1.38,0,0,1,.85-1.21h1.68c.93,0,1.38.4,1.38,1M226,16.21a1.45,1.45,0,0,1-1.63,1.52,1.42,1.42,0,0,1-1.63-1.52,1.51,1.51,0,0,1,1.67-1.54A1.43,1.43,0,0,1,226,16.21m1.64,5.25c0-1.2-.8-1.89-2.23-1.89h-1.23c-.79,0-1.12-.14-1.12-.52a.6.6,0,0,1,.42-.54,5.33,5.33,0,0,0,.84.08c1.88,0,2.86-1,2.86-2.46a1.62,1.62,0,0,0-.55-1.29h1.11V13.9h-2.24a4.36,4.36,0,0,0-1-.12,2.6,2.6,0,0,0-2.89,2.55,2,2,0,0,0,1,1.89,1.21,1.21,0,0,0-.75,1.1,1.07,1.07,0,0,0,.65,1A2,2,0,0,0,221.38,22c0,1.26,1.08,1.94,2.78,1.94,2.07,0,3.51-1.09,3.51-2.48m-7.95-1V15.88c0-1.17-.47-2.11-2-2.11a2.4,2.4,0,0,0-2.32,1.53l0,0a8,8,0,0,0,.11-1.38h-1.16v6.6h1.2V17.33c0-1.46.78-2.57,1.87-2.57.88,0,1.13.55,1.13,1.48V20.5Zm-7.64,0V13.9h-1.19v3.18c0,1.46-.79,2.56-1.88,2.56-.87,0-1.13-.55-1.13-1.48V13.9H206.7v4.62c0,1.17.46,2.11,2,2.11A2.41,2.41,0,0,0,211,19.11h0a9.27,9.27,0,0,0-.11,1.38Zm-6.79-6.72A2.09,2.09,0,0,0,203,15.47h0a8.59,8.59,0,0,0,.15-1.57H202v6.6h1.2V17.85c0-2.12.66-3.14,2.06-2.9ZM199,16.28h-3.08a1.66,1.66,0,0,1,1.61-1.62A1.43,1.43,0,0,1,199,16.28m1.22.28a2.49,2.49,0,0,0-2.64-2.78c-1.87,0-2.95,1.48-2.95,3.46,0,2.32,1.09,3.38,3.12,3.38a5.72,5.72,0,0,0,2.23-.41l-.1-1a4.75,4.75,0,0,1-1.93.41c-1.41,0-2.14-.75-2.08-2.52h4.31a4.31,4.31,0,0,0,0-.57m-8.46.53c0,1.15-.61,2.55-1.8,2.55-1,0-1.46-.81-1.46-2.23,0-1.9.83-2.66,2.1-2.66a4.35,4.35,0,0,1,1.16.15ZM193,20.5V10.81h-1.2v3.07a11,11,0,0,0-1.11-.07c-2.09,0-3.41,1.39-3.41,3.7,0,1.93.8,3.11,2.43,3.11a2.33,2.33,0,0,0,2.21-1.47h0a7.73,7.73,0,0,0-.11,1.34Zm-6.42-6.72a2.09,2.09,0,0,0-2.27,1.69h0a9.47,9.47,0,0,0,.14-1.57h-1.15v6.6h1.19V17.85c0-2.12.67-3.14,2.06-2.9Zm-8.61-2a.71.71,0,0,0-.71-.72.72.72,0,0,0-.72.72.7.7,0,0,0,.72.7.69.69,0,0,0,.71-.7m2.54,0a.7.7,0,0,0-.7-.72.72.72,0,0,0-.72.72.7.7,0,0,0,.72.7.68.68,0,0,0,.7-.7m-.14,5.34c0,1.68-.85,2.45-1.83,2.45-1.21,0-1.86-.87-1.86-2.47s.9-2.36,1.86-2.36c1.22,0,1.83.87,1.83,2.38m1.25-.07c0-2.38-1.29-3.31-3-3.31a3.21,3.21,0,0,0-3.21,3.48c0,2.33,1.17,3.36,3,3.36a3.26,3.26,0,0,0,3.23-3.53m-6-6.24a5,5,0,0,0-1.09-.12c-1.65,0-2.54.86-2.54,2.68v.49h-1.35v.93h1.35V20.5h1.2V14.83H175V13.9h-1.83v-.5c0-1.17.41-1.7,1.35-1.7a3.21,3.21,0,0,1,1,.14Zm-5.74,7.67c0-2.21-3.08-1.43-3.08-2.88,0-.57.44-.94,1.31-.94a4.57,4.57,0,0,1,1.33.21l0-1a6.85,6.85,0,0,0-1.26-.14c-1.73,0-2.65.87-2.65,2,0,2.33,3.07,1.42,3.07,2.9,0,.61-.6,1-1.47,1a5,5,0,0,1-1.45-.23l0,1.06a7.5,7.5,0,0,0,1.39.12c1.76,0,2.82-.9,2.82-2.1m-4.33-7.67a5,5,0,0,0-1.09-.12c-1.64,0-2.53.86-2.53,2.68v.49h-1.36v.93h1.36V20.5h1.19V14.83h1.83V13.9h-1.83v-.5c0-1.17.41-1.7,1.35-1.7a3.16,3.16,0,0,1,1,.14Zm-6.2,9.65V13.9h-1.18v3.18c0,1.46-.8,2.56-1.89,2.56-.86,0-1.13-.55-1.13-1.48V13.9h-1.18v4.62c0,1.17.47,2.11,2,2.11a2.41,2.41,0,0,0,2.32-1.52h0a9.27,9.27,0,0,0-.11,1.38Zm-6.79-6.72a2.09,2.09,0,0,0-2.27,1.69h0a9.47,9.47,0,0,0,.14-1.57H149.2v6.6h1.19V17.85c0-2.12.66-3.14,2.06-2.9Zm-6.27,2.5h-3.08a1.68,1.68,0,0,1,1.61-1.62,1.43,1.43,0,0,1,1.47,1.62m1.23.28a2.5,2.5,0,0,0-2.65-2.78c-1.87,0-2.94,1.48-2.94,3.46,0,2.32,1.08,3.38,3.12,3.38a5.79,5.79,0,0,0,2.23-.41l-.11-1a4.74,4.74,0,0,1-1.92.41c-1.41,0-2.14-.75-2.09-2.52h4.32c0-.23,0-.41,0-.57m-8.1,1.3c0,1-.66,1.69-2.12,1.69a7.19,7.19,0,0,1-1.14-.07V16.35c.21,0,.68,0,.84,0,1.38,0,2.42.37,2.42,1.53m-.19-4c0,1-.78,1.57-2.26,1.57-.32,0-.56,0-.81,0V12.51c.36,0,.8,0,1.21,0,1.45,0,1.86.57,1.86,1.37m1.46,4a2,2,0,0,0-1.81-2.06v0a2.21,2.21,0,0,0,1.61-2.08c0-1.34-.94-2.15-2.91-2.15-1.07,0-2,0-2.64,0v9l2.28,0c2.81,0,3.47-1.64,3.47-2.72"/><path class="cls-2" d="M125.92,15.62a38.56,38.56,0,0,0-1.38-5.48,37.74,37.74,0,0,0-2.23-5.29A40.1,40.1,0,0,0,119.37,0h-4.64A50.11,50.11,0,0,1,119,10.67a39.88,39.88,0,0,1,1.46,10.38,42.06,42.06,0,0,1-.38,5.54A43.61,43.61,0,0,1,119,32.16a46.09,46.09,0,0,1-1.81,5.39,43.19,43.19,0,0,1-2.42,5h4.64a27.14,27.14,0,0,0,2.92-4.62,38.24,38.24,0,0,0,2.2-5.35,41.1,41.1,0,0,0,1.41-5.74,35,35,0,0,0,.5-5.81,31.17,31.17,0,0,0-.48-5.38m-15-4.45a4.33,4.33,0,0,0-3.11-.94c-2.48,0-3.73,1.33-3.73,4a3.85,3.85,0,0,0,1,2.91,4.32,4.32,0,0,0,3.06.91q3.78,0,3.78-3.92a3.94,3.94,0,0,0-1-2.94"/><rect class="cls-1" x="104.61" y="27.02" width="6.76" height="6.76"/><path class="cls-1" d="M2.71,63c-.74,0-1.38,0-2,0V55.86c.56,0,1.42,0,2.29,0,2.2,0,3.59,1,3.59,3.47S5,63,2.71,63Zm.22-6c-.32,0-.61,0-.83,0v4.78a5.21,5.21,0,0,0,.75,0,2.15,2.15,0,0,0,2.29-2.44C5.14,57.86,4.55,57,2.93,57Z"/><path class="cls-1" d="M8.4,57a.82.82,0,0,1-.83-.81A.84.84,0,1,1,8.4,57Zm-.67,6V57.72H9.07v5.22Z"/><path class="cls-1" d="M14.74,60.57H11.52c0,1,.43,1.43,1.44,1.43a4.12,4.12,0,0,0,1.51-.31l.14,1a5.55,5.55,0,0,1-1.88.34c-1.65,0-2.58-.83-2.58-2.67a2.5,2.5,0,0,1,2.48-2.76,2,2,0,0,1,2.16,2.21A4.84,4.84,0,0,1,14.74,60.57Zm-2.18-2a1,1,0,0,0-1,1.07h1.92C13.48,59,13.12,58.61,12.56,58.61Z"/><path class="cls-1" d="M21,63.06c-2.24,0-2.74-1.22-2.74-2.58V55.86h1.36V60.4c0,.89.3,1.52,1.47,1.52s1.49-.44,1.49-1.65V55.86H23.9v4.33C23.9,62.13,22.83,63.06,21,63.06Z"/><path class="cls-1" d="M28.56,62.94V59.6c0-.53-.15-.86-.65-.86-.67,0-1.21.77-1.21,1.68v2.52H25.36V57.72h1.27a5.26,5.26,0,0,1-.08.94h0a1.93,1.93,0,0,1,1.78-1c1.17,0,1.55.74,1.55,1.66v3.66Z"/><path class="cls-1" d="M33,63.05c-1.15,0-1.51-.42-1.51-1.64V58.76h-.9v-1h.9v-1.6l1.33-.36v2h1.27v1H32.86v2.29c0,.67.16.86.62.86a2.25,2.25,0,0,0,.6-.07l.1,1.06A5.31,5.31,0,0,1,33,63.05Z"/><path class="cls-1" d="M39.45,60.57H36.22c0,1,.43,1.43,1.44,1.43a4,4,0,0,0,1.51-.31l.15,1a5.65,5.65,0,0,1-1.89.34c-1.65,0-2.57-.83-2.57-2.67a2.49,2.49,0,0,1,2.48-2.76,2,2,0,0,1,2.16,2.21A4.84,4.84,0,0,1,39.45,60.57Zm-2.19-2a1,1,0,0,0-1,1.07h1.92C38.19,59,37.83,58.61,37.26,58.61Z"/><path class="cls-1" d="M43.42,58.93c-1-.19-1.45.43-1.45,1.88v2.13H40.62V57.72h1.27a7.08,7.08,0,0,1-.09,1.05h0a1.56,1.56,0,0,1,1.66-1.15Z"/><path class="cls-1" d="M47.55,62.94V59.6c0-.53-.14-.86-.65-.86-.67,0-1.2.77-1.2,1.68v2.52H44.35V57.72h1.27a6.32,6.32,0,0,1-.07.94h0a1.9,1.9,0,0,1,1.77-1c1.18,0,1.56.74,1.56,1.66v3.66Z"/><path class="cls-1" d="M54.57,60.57H51.34c0,1,.43,1.43,1.44,1.43a4,4,0,0,0,1.51-.31l.15,1a5.65,5.65,0,0,1-1.89.34c-1.65,0-2.57-.83-2.57-2.67a2.49,2.49,0,0,1,2.48-2.76,2,2,0,0,1,2.16,2.21A4.84,4.84,0,0,1,54.57,60.57Zm-2.19-2a1,1,0,0,0-1,1.07h1.92C53.31,59,53,58.61,52.38,58.61Z"/><path class="cls-1" d="M59,62.94V59.6c0-.53-.15-.86-.65-.86-.68,0-1.21.77-1.21,1.69v2.51H55.74V55.28h1.35v2.24a4.7,4.7,0,0,1-.1,1.06h0a1.88,1.88,0,0,1,1.72-1c1.17,0,1.55.74,1.55,1.66v3.66Z"/><path class="cls-1" d="M68,62.94v-3.3c0-.55-.13-.9-.62-.9s-1.2.68-1.2,1.7v2.5H64.9V59.63c0-.51-.11-.89-.62-.89s-1.2.73-1.2,1.7v2.5H61.74V57.72H63a8.18,8.18,0,0,1-.06.94h0a1.86,1.86,0,0,1,1.72-1.05,1.35,1.35,0,0,1,1.44,1,1.85,1.85,0,0,1,1.7-1c1,0,1.56.56,1.56,1.73v3.59Z"/><path class="cls-1" d="M75.05,60.57H71.83c0,1,.43,1.43,1.44,1.43a4.08,4.08,0,0,0,1.51-.31l.15,1a5.65,5.65,0,0,1-1.89.34c-1.65,0-2.57-.83-2.57-2.67a2.49,2.49,0,0,1,2.47-2.76,2,2,0,0,1,2.17,2.21A3.88,3.88,0,0,1,75.05,60.57Zm-2.18-2a1,1,0,0,0-1,1.07h1.92C73.79,59,73.44,58.61,72.87,58.61Z"/><path class="cls-1" d="M79.43,62.94V59.6c0-.53-.15-.86-.65-.86-.67,0-1.21.77-1.21,1.68v2.52H76.23V57.72H77.5a6.32,6.32,0,0,1-.07.94h0a1.9,1.9,0,0,1,1.77-1c1.18,0,1.56.74,1.56,1.66v3.66Z"/><path class="cls-1" d="M84.26,62.94V62l2.1-3.08-1.11,0h-.92V57.72H88v1l-2.06,3H88v1.23Z"/><path class="cls-1" d="M92.52,62.94a6,6,0,0,1,.06-.93h0a1.92,1.92,0,0,1-1.78,1c-1.17,0-1.55-.75-1.55-1.66V57.72h1.33v3.34c0,.54.15.86.65.86.69,0,1.21-.76,1.21-1.68V57.72h1.34v5.22Z"/><path class="cls-1" d="M98,58.93c-1-.19-1.45.43-1.45,1.88v2.13H95.22V57.72h1.27a7.08,7.08,0,0,1-.09,1.05h0a1.56,1.56,0,0,1,1.66-1.15Z"/><path class="cls-1" d="M102.68,63.06a6.6,6.6,0,0,1-1.64-.19l.15-1.31a4.14,4.14,0,0,0,1.54.3c.64,0,1.19-.26,1.19-.92,0-1.36-3-.74-3-3.07,0-1.26,1-2.13,2.67-2.13a6.19,6.19,0,0,1,1.28.14l-.12,1.19a4.16,4.16,0,0,0-1.22-.2c-.8,0-1.16.35-1.16.85,0,1.26,3,.8,3,3.05C105.42,62.08,104.32,63.06,102.68,63.06Z"/><path class="cls-1" d="M108.28,63.05c-1.16,0-1.52-.42-1.52-1.64V58.76h-.9v-1h.9v-1.6l1.34-.36v2h1.27v1H108.1v2.29c0,.67.15.86.62.86a2.12,2.12,0,0,0,.59-.07l.1,1.06A5.3,5.3,0,0,1,108.28,63.05Z"/><path class="cls-1" d="M113.25,62.94a6.22,6.22,0,0,1,0-.88h0a1.76,1.76,0,0,1-1.67,1,1.41,1.41,0,0,1-1.49-1.49c0-1.24,1.19-1.82,3-1.82v-.19c0-.63-.24-.91-.94-.91a4.41,4.41,0,0,0-1.57.35l-.22-1a5.87,5.87,0,0,1,2-.35c1.62,0,2.1.67,2.1,1.83V61.6c0,.42,0,.91,0,1.34Zm-1.8-6.08a.73.73,0,1,1,.72-.72A.72.72,0,0,1,111.45,56.86Zm1.7,3.76c-1.36,0-1.72.34-1.72.79a.6.6,0,0,0,.63.61,1.19,1.19,0,0,0,1.09-1.26Zm.42-3.76a.73.73,0,1,1,.72-.72A.72.72,0,0,1,113.57,56.86Z"/><path class="cls-1" d="M118.75,58.93c-1-.19-1.44.43-1.44,1.88v2.13H116V57.72h1.27a7.08,7.08,0,0,1-.09,1.05h0a1.55,1.55,0,0,1,1.66-1.15Z"/><path class="cls-1" d="M122.65,62.94,121,60.36v2.58h-1.34V55.28H121V59.9l1.53-2.18h1.63l-1.82,2.39,2,2.83Z"/><path class="cls-1" d="M128.31,62.94a6,6,0,0,1,.06-.93h0a1.89,1.89,0,0,1-1.77,1c-1.18,0-1.56-.75-1.56-1.66V57.72h1.34v3.34c0,.54.14.86.65.86.68,0,1.21-.76,1.21-1.68V57.72h1.34v5.22Z"/><path class="cls-1" d="M134.22,62.94V59.6c0-.53-.15-.86-.65-.86-.67,0-1.21.77-1.21,1.68v2.52H131V57.72h1.27a5.26,5.26,0,0,1-.08.94h0a1.9,1.9,0,0,1,1.77-1c1.18,0,1.55.74,1.55,1.66v3.66Z"/><path class="cls-1" d="M138.88,65.58c-1.38,0-2.23-.54-2.23-1.56a1.52,1.52,0,0,1,.81-1.28.86.86,0,0,1-.52-.8,1,1,0,0,1,.62-.93,1.53,1.53,0,0,1-.78-1.43,2,2,0,0,1,2.3-2,3.18,3.18,0,0,1,.85.11h1.78v1.05H141a.89.89,0,0,1,.27.67c0,1.11-.75,1.87-2.24,1.87a1.9,1.9,0,0,1-.41,0,.38.38,0,0,0-.25.34c0,.24.2.3.81.32l.8,0c1.13,0,1.78.53,1.78,1.54S140.62,65.58,138.88,65.58ZM139.6,63l-.91,0h-.24a1,1,0,0,0-.48.8c0,.48.44.78,1.11.78.87,0,1.34-.38,1.34-.87S140.17,63,139.6,63ZM139,58.58a.89.89,0,0,0-1,.92.86.86,0,0,0,1,.9.84.84,0,0,0,.94-.89A.85.85,0,0,0,139,58.58Z"/><path class="cls-1" d="M147.63,62.94h-1.37l-1.93-5.22h1.47l.83,2.34c.12.38.25.8.35,1.17h0c.08-.36.2-.76.31-1.11l.84-2.4h1.43Z"/><path class="cls-1" d="M152.15,63.05c-1.48,0-2.43-.77-2.43-2.63a2.62,2.62,0,0,1,2.66-2.8c1.49,0,2.44.82,2.44,2.61A2.64,2.64,0,0,1,152.15,63.05Zm.14-4.3c-.6,0-1.18.46-1.18,1.53s.38,1.62,1.16,1.62,1.17-.53,1.17-1.59S153.08,58.75,152.29,58.75Z"/><path class="cls-1" d="M159.11,62.94V59.6c0-.53-.15-.86-.65-.86-.68,0-1.21.77-1.21,1.68v2.52H155.9V57.72h1.27a6.32,6.32,0,0,1-.07.94h0a1.92,1.92,0,0,1,1.77-1c1.18,0,1.56.74,1.56,1.66v3.66Z"/><path class="cls-1" d="M171,62.94l-.51-3.42c-.1-.64-.17-1.28-.23-1.78h0a15.79,15.79,0,0,1-.4,1.62l-1.14,3.58h-1.32l-1.09-3.33a17.64,17.64,0,0,1-.47-1.87h0c-.05.63-.11,1.28-.19,1.89l-.41,3.31H163.8l1.08-7.08h1.61l1.19,3.66c.12.38.29,1,.39,1.49h0c.13-.54.27-1.07.39-1.47l1.21-3.68h1.6l1.1,7.08Z"/><path class="cls-1" d="M177.66,60.57h-3.22c0,1,.43,1.43,1.43,1.43a4,4,0,0,0,1.51-.31l.15,1a5.65,5.65,0,0,1-1.89.34c-1.65,0-2.57-.83-2.57-2.67a2.49,2.49,0,0,1,2.48-2.76,2,2,0,0,1,2.16,2.21A4.84,4.84,0,0,1,177.66,60.57Zm-2.19-2a1,1,0,0,0-1,1.07h1.92C176.4,59,176,58.61,175.47,58.61Z"/><path class="cls-1" d="M182,62.94V59.6c0-.53-.15-.86-.66-.86-.67,0-1.2.77-1.2,1.68v2.52h-1.35V57.72h1.27a6.32,6.32,0,0,1-.07.94h0a1.92,1.92,0,0,1,1.78-1c1.17,0,1.55.74,1.55,1.66v3.66Z"/><path class="cls-1" d="M185.77,63.05a4.73,4.73,0,0,1-1.16-.14l.09-1.12a3.1,3.1,0,0,0,1.12.21c.5,0,.84-.22.84-.57,0-.92-2.12-.38-2.12-2.15,0-.93.7-1.67,2.21-1.67a5.2,5.2,0,0,1,.95.1l-.07,1a3.56,3.56,0,0,0-.94-.13c-.53,0-.77.21-.77.53,0,.88,2.15.44,2.15,2.15C188.07,62.35,187.16,63.05,185.77,63.05Z"/><path class="cls-1" d="M191.19,63c-1.45,0-2.35-.76-2.35-2.53a2.56,2.56,0,0,1,2.66-2.88,3.54,3.54,0,0,1,1.14.18L192.43,59a2.76,2.76,0,0,0-1-.2c-.79,0-1.2.64-1.2,1.61s.32,1.51,1.21,1.51a2.45,2.45,0,0,0,1-.21l.18,1.12A4.27,4.27,0,0,1,191.19,63Z"/><path class="cls-1" d="M196.87,62.94V59.6c0-.53-.15-.86-.65-.86-.67,0-1.21.77-1.21,1.69v2.51h-1.34V55.28H195v2.24a5.36,5.36,0,0,1-.09,1.06h0a1.85,1.85,0,0,1,1.71-1c1.18,0,1.56.74,1.56,1.66v3.66Z"/><path class="cls-1" d="M203.88,60.57h-3.22c0,1,.43,1.43,1.44,1.43a4.08,4.08,0,0,0,1.51-.31l.15,1a5.65,5.65,0,0,1-1.89.34c-1.65,0-2.57-.83-2.57-2.67a2.49,2.49,0,0,1,2.47-2.76,2,2,0,0,1,2.17,2.21A3.88,3.88,0,0,1,203.88,60.57Zm-2.18-2c-.56,0-.94.41-1,1.07h1.92C202.62,59,202.27,58.61,201.7,58.61Z"/><path class="cls-1" d="M208.26,62.94V59.6c0-.53-.14-.86-.65-.86-.67,0-1.21.77-1.21,1.68v2.52h-1.34V57.72h1.27a6.32,6.32,0,0,1-.07.94h0a1.9,1.9,0,0,1,1.77-1c1.18,0,1.56.74,1.56,1.66v3.66Z"/><path class="cls-1" d="M216.45,56.38a2.14,2.14,0,0,0-.65-.1c-.59,0-.85.31-.85,1v.44h1.22v1H215v4.18h-1.33V58.76h-.91v-1h.91v-.43a1.83,1.83,0,0,1,2.08-2.1,3.51,3.51,0,0,1,.85.09Z"/><path class="cls-1" d="M220.34,62.94a6,6,0,0,1,.06-.93h0a1.9,1.9,0,0,1-1.77,1c-1.18,0-1.56-.75-1.56-1.66V57.72h1.33v3.34c0,.54.15.86.65.86.69,0,1.21-.76,1.21-1.68V57.72h1.35v5.22Zm-2.07-6.08a.73.73,0,1,1,.72-.72A.72.72,0,0,1,218.27,56.86Zm2.12,0a.73.73,0,1,1,.72-.72A.72.72,0,0,1,220.39,56.86Z"/><path class="cls-1" d="M225.84,58.93c-1-.19-1.45.43-1.45,1.88v2.13h-1.34V57.72h1.27a6,6,0,0,1-.1,1.05h0a1.57,1.57,0,0,1,1.66-1.15Z"/><path class="cls-1" d="M232.21,62.94a5.36,5.36,0,0,1,.07-.87h0a1.76,1.76,0,0,1-1.65,1c-1.27,0-1.9-1-1.9-2.45a2.69,2.69,0,0,1,2.76-3,5,5,0,0,1,.66,0V55.28h1.33v7.66Zm-.08-4.17a3.42,3.42,0,0,0-.7-.08c-.77,0-1.32.48-1.32,1.77,0,1,.29,1.48.9,1.48s1.12-.82,1.12-1.71Z"/><path class="cls-1" d="M235.6,57a.81.81,0,0,1-.83-.81.82.82,0,0,1,.83-.82.82.82,0,1,1,0,1.63Zm-.68,6V57.72h1.35v5.22Z"/><path class="cls-1" d="M241.94,60.57h-3.23c0,1,.43,1.43,1.44,1.43a4.08,4.08,0,0,0,1.51-.31l.15,1a5.65,5.65,0,0,1-1.89.34c-1.65,0-2.57-.83-2.57-2.67a2.49,2.49,0,0,1,2.48-2.76A2,2,0,0,1,242,59.83,4.84,4.84,0,0,1,241.94,60.57Zm-2.19-2c-.55,0-.94.41-1,1.07h1.93C240.68,59,240.32,58.61,239.75,58.61Z"/><path class="cls-1" d="M249.73,62.94l-.49-1.45h-2.68l-.5,1.45h-1.37l2.44-7.08h1.61l2.5,7.08Zm-1.56-4.64c-.11-.35-.21-.66-.28-1h0c-.09.32-.17.63-.27,1l-.73,2.11h2Z"/><path class="cls-1" d="M254.77,58.93c-1-.19-1.45.43-1.45,1.88v2.13H252V57.72h1.27a7.08,7.08,0,0,1-.09,1.05h0a1.56,1.56,0,0,1,1.66-1.15Z"/><path class="cls-1" d="M257.64,63.05a6.8,6.8,0,0,1-1.94-.26V55.28h1.35v2.24a6.45,6.45,0,0,1-.09,1h0a1.68,1.68,0,0,1,1.58-.92c1.25,0,1.92.9,1.92,2.44A2.71,2.71,0,0,1,257.64,63.05Zm.53-4.32c-.7,0-1.12.81-1.12,1.68v1.47a2.21,2.21,0,0,0,.7.1c.76,0,1.31-.49,1.31-1.78C259.06,59.22,258.78,58.73,258.17,58.73Z"/><path class="cls-1" d="M265.79,60.57h-3.22c0,1,.43,1.43,1.44,1.43a4.08,4.08,0,0,0,1.51-.31l.15,1a5.65,5.65,0,0,1-1.89.34c-1.65,0-2.58-.83-2.58-2.67a2.5,2.5,0,0,1,2.48-2.76,2,2,0,0,1,2.16,2.21A4.84,4.84,0,0,1,265.79,60.57Zm-2.18-2a1,1,0,0,0-1,1.07h1.92C264.53,59,264.18,58.61,263.61,58.61Z"/><path class="cls-1" d="M267.64,57a.82.82,0,0,1-.83-.81.84.84,0,1,1,.83.81Zm-.67,6V57.72h1.34v5.22Z"/><path class="cls-1" d="M271.51,63.05c-1.15,0-1.51-.42-1.51-1.64V58.76h-.9v-1h.9v-1.6l1.34-.36v2h1.27v1h-1.27v2.29c0,.67.15.86.62.86a2.12,2.12,0,0,0,.59-.07l.1,1.06A5.31,5.31,0,0,1,271.51,63.05Z"/><path class="cls-1" d="M274.64,63.05a4.61,4.61,0,0,1-1.16-.14l.09-1.12a3.1,3.1,0,0,0,1.12.21c.5,0,.84-.22.84-.57,0-.92-2.13-.38-2.13-2.15,0-.93.71-1.67,2.22-1.67a5,5,0,0,1,.94.1l-.06,1a3.56,3.56,0,0,0-.94-.13c-.53,0-.77.21-.77.53,0,.88,2.15.44,2.15,2.15C276.94,62.35,276,63.05,274.64,63.05Z"/><path class="cls-1" d="M283.88,62.94h-1.46l-.75-2.31c-.11-.37-.2-.73-.3-1.17h0c-.1.48-.22.88-.35,1.31l-.67,2.17H279l-1.6-5.22h1.47l.56,2c.14.51.28,1,.41,1.57h0a11.85,11.85,0,0,1,.38-1.51l.63-2h1.29l.64,2c.18.6.31,1.06.42,1.57h0c.1-.53.22-1,.35-1.51l.6-2h1.38Z"/><path class="cls-1" d="M290.46,60.57h-3.22c0,1,.43,1.43,1.44,1.43a4.08,4.08,0,0,0,1.51-.31l.15,1a5.65,5.65,0,0,1-1.89.34c-1.65,0-2.57-.83-2.57-2.67a2.49,2.49,0,0,1,2.47-2.76,2,2,0,0,1,2.17,2.21A3.88,3.88,0,0,1,290.46,60.57Zm-2.18-2c-.56,0-.94.41-1,1.07h1.92C289.21,59,288.85,58.61,288.28,58.61Z"/><path class="cls-1" d="M291.64,62.94V55.28H293v7.66Z"/><path class="cls-1" d="M296.19,63.05c-1.16,0-1.51-.42-1.51-1.64V58.76h-.91v-1h.91v-1.6l1.33-.36v2h1.27v1H296v2.29c0,.67.16.86.62.86a2.25,2.25,0,0,0,.6-.07l.09,1.06A5.3,5.3,0,0,1,296.19,63.05Z"/><path class="cls-1" d="M2.7,75l-1.81,0V67.85c.52,0,1.22,0,2.07,0,1.52,0,2.27.64,2.27,1.7A1.7,1.7,0,0,1,4,71.17v0a1.6,1.6,0,0,1,1.44,1.63C5.45,73.79,4.8,75,2.7,75Zm.1-6.38-.94,0v2.3H2.5c1.16,0,1.72-.46,1.72-1.24S3.88,68.59,2.8,68.59Zm-.28,3H1.86v2.49c.19,0,.6.06.9.06,1.16,0,1.67-.58,1.67-1.33S3.67,71.64,2.52,71.64Z"/><path class="cls-1" d="M10.8,72.32H7.39c0,1.36.52,2,1.65,2A3.82,3.82,0,0,0,10.53,74l.14.75A5,5,0,0,1,8.86,75c-1.58,0-2.44-.84-2.44-2.68,0-1.56.87-2.73,2.35-2.73a1.93,1.93,0,0,1,2.07,2.14C10.84,71.9,10.82,72.11,10.8,72.32Zm-2.1-2a1.34,1.34,0,0,0-1.28,1.3H9.87A1.14,1.14,0,0,0,8.7,70.34Z"/><path class="cls-1" d="M14.78,70.56c-1.1-.2-1.62.61-1.62,2.28v2.1h-.95V69.72h.91A7.27,7.27,0,0,1,13,71h0a1.66,1.66,0,0,1,1.8-1.33Z"/><path class="cls-1" d="M19.28,74.94a6.79,6.79,0,0,1,.08-1.1h0A1.91,1.91,0,0,1,17.5,75c-1.19,0-1.56-.75-1.56-1.67V69.72h.93v3.36c0,.74.21,1.18.9,1.18.86,0,1.48-.88,1.48-2v-2.5h.94v5.22Z"/><path class="cls-1" d="M25,68.1a2.22,2.22,0,0,0-.77-.12c-.74,0-1.07.42-1.07,1.34v.4h1.45v.74H23.17v4.48h-.94V70.46H21.16v-.74h1.07v-.38c0-1.44.7-2.13,2-2.13a4,4,0,0,1,.86.1Z"/><path class="cls-1" d="M26.31,75a4.53,4.53,0,0,1-1.15-.14l.08-.84a3.19,3.19,0,0,0,1.16.21c.67,0,1.13-.31,1.13-.8,0-1.17-2.43-.44-2.43-2.28,0-.89.7-1.56,2.08-1.56a5.67,5.67,0,0,1,1,.1l-.07.78a3.75,3.75,0,0,0-1-.16c-.69,0-1,.3-1,.75,0,1.15,2.44.49,2.44,2.27C28.52,74.32,27.68,75,26.31,75Z"/><path class="cls-1" d="M33,68.1A2.25,2.25,0,0,0,32.2,68c-.74,0-1.07.42-1.07,1.34v.4h1.45v.74H31.13v4.48h-.94V70.46H29.12v-.74h1.07v-.38c0-1.44.7-2.13,2-2.13a4,4,0,0,1,.86.1Z"/><path class="cls-1" d="M35.28,75c-1.42,0-2.34-.82-2.34-2.66a2.54,2.54,0,0,1,2.54-2.75c1.33,0,2.35.73,2.35,2.61A2.58,2.58,0,0,1,35.28,75Zm-.87-6.4a.57.57,0,1,1,0-1.13.57.57,0,0,1,0,1.13Zm1,1.78c-.75,0-1.47.57-1.47,1.86s.51,2,1.47,2c.77,0,1.44-.61,1.44-1.94S36.36,70.42,35.4,70.42Zm1-1.78a.57.57,0,1,1,.56-.56A.55.55,0,0,1,36.42,68.64Z"/><path class="cls-1" d="M41.72,70.56c-1.11-.2-1.63.61-1.63,2.28v2.1h-1V69.72h.92A6.46,6.46,0,0,1,39.94,71h0a1.66,1.66,0,0,1,1.8-1.33Z"/><path class="cls-1" d="M45.9,74.94A6.47,6.47,0,0,1,46,73.88h0A1.87,1.87,0,0,1,44.2,75c-1.28,0-1.92-.94-1.92-2.46A2.61,2.61,0,0,1,45,69.65c.29,0,.57,0,.88,0V67.28h1v7.66Zm0-4.43a4.27,4.27,0,0,0-.92-.11c-1,0-1.66.59-1.66,2.09,0,1.13.37,1.77,1.16,1.77.94,0,1.42-1.1,1.42-2Z"/><path class="cls-1" d="M52.52,72.32H49.11c0,1.36.51,2,1.65,2A3.82,3.82,0,0,0,52.25,74l.13.75a4.89,4.89,0,0,1-1.8.33c-1.59,0-2.45-.84-2.45-2.68,0-1.56.87-2.73,2.35-2.73a1.93,1.93,0,0,1,2.07,2.14C52.55,71.9,52.54,72.11,52.52,72.32Zm-2.1-2a1.34,1.34,0,0,0-1.28,1.3h2.45A1.14,1.14,0,0,0,50.42,70.34Z"/><path class="cls-1" d="M56.5,70.56c-1.1-.2-1.63.61-1.63,2.28v2.1h-.94V69.72h.91A7.27,7.27,0,0,1,54.73,71h0a1.65,1.65,0,0,1,1.79-1.33Z"/><path class="cls-1" d="M61,74.94a6.8,6.8,0,0,1,.09-1.1h0A1.93,1.93,0,0,1,59.22,75c-1.2,0-1.56-.75-1.56-1.67V69.72h.93v3.36c0,.74.21,1.18.89,1.18.86,0,1.48-.88,1.48-2v-2.5h.95v5.22Z"/><path class="cls-1" d="M67,74.94V71.58c0-.73-.2-1.17-.89-1.17-.86,0-1.48.88-1.48,2v2.5h-1V69.72h.92a5.94,5.94,0,0,1-.09,1.11h0a1.92,1.92,0,0,1,1.84-1.2c1.2,0,1.58.74,1.58,1.67v3.64Z"/><path class="cls-1" d="M71.45,77.63c-1.34,0-2.19-.56-2.19-1.57a1.64,1.64,0,0,1,.87-1.38.83.83,0,0,1-.51-.78,1,1,0,0,1,.57-.88,1.58,1.58,0,0,1-.76-1.44,2,2,0,0,1,2.21-2,3.06,3.06,0,0,1,.74.09h1.77v.75h-.86a1.21,1.21,0,0,1,.42,1c0,1.07-.73,1.88-2.21,1.88a2,2,0,0,1-.55-.07.52.52,0,0,0-.34.44c0,.3.27.39.89.41l1,0c1.12,0,1.75.57,1.75,1.51C74.21,76.75,73.09,77.63,71.45,77.63Zm.74-2.71-1,0h-.3a1.31,1.31,0,0,0-.68,1c0,.62.59,1,1.41,1,1.06,0,1.65-.48,1.65-1.12S72.92,74.94,72.19,74.92Zm-.59-4.59a1.14,1.14,0,0,0-1.24,1.17,1.21,1.21,0,1,0,1.24-1.17Z"/><path class="cls-1" d="M76.25,75a4.53,4.53,0,0,1-1.15-.14l.08-.84a3.17,3.17,0,0,0,1.15.21c.68,0,1.14-.31,1.14-.8C77.47,72.3,75,73,75,71.19c0-.89.7-1.56,2.08-1.56a5.76,5.76,0,0,1,1,.1l-.07.78a3.81,3.81,0,0,0-1-.16c-.69,0-1,.3-1,.75,0,1.15,2.44.49,2.44,2.27C78.46,74.32,77.62,75,76.25,75Z"/><path class="cls-1" d="M85.41,74.94H84.35l-1-3.08c-.11-.32-.2-.67-.3-1h0c-.1.46-.23.87-.37,1.31l-.87,2.8H80.71l-1.6-5.22h1l.79,2.79c.14.48.28.95.38,1.36h0c.11-.46.23-.91.36-1.34l.89-2.81h1l.9,2.77c.2.66.31,1,.4,1.39h0c.11-.44.21-.82.36-1.34l.84-2.82h1Z"/><path class="cls-1" d="M92,72.32H88.62c0,1.36.51,2,1.65,2A3.82,3.82,0,0,0,91.76,74l.14.75a5,5,0,0,1-1.81.33c-1.59,0-2.45-.84-2.45-2.68,0-1.56.87-2.73,2.35-2.73a1.93,1.93,0,0,1,2.07,2.14C92.06,71.9,92.05,72.11,92,72.32Zm-2.1-2a1.34,1.34,0,0,0-1.28,1.3H91.1A1.14,1.14,0,0,0,89.93,70.34Z"/><path class="cls-1" d="M96,70.56c-1.1-.2-1.63.61-1.63,2.28v2.1h-.94V69.72h.91A7.27,7.27,0,0,1,94.24,71h0a1.65,1.65,0,0,1,1.79-1.33Z"/><path class="cls-1" d="M100,74.94l-1.93-2.69v2.69h-.94V67.28h.94V72L100,69.72h1.14l-2,2.39,2.16,2.83Z"/><path class="cls-1" d="M109.21,74.94V71.68H105.6v3.26h-1V67.85h1v3h3.61v-3h1v7.09Z"/><path class="cls-1" d="M114.74,74.94a5.66,5.66,0,0,1,.06-1h0A1.86,1.86,0,0,1,113,75a1.36,1.36,0,0,1-1.45-1.41c0-1.12,1.15-1.8,3.14-1.8v-.24c0-.83-.28-1.23-1.1-1.23a4.21,4.21,0,0,0-1.58.38l-.17-.74a5.05,5.05,0,0,1,1.87-.38c1.46,0,1.93.7,1.93,1.82v2c0,.49,0,1,0,1.5Zm0-2.45c-1.71,0-2.2.48-2.2,1a.76.76,0,0,0,.79.8,1.57,1.57,0,0,0,1.41-1.66Z"/><path class="cls-1" d="M123.93,74.94V71.59c0-.71-.17-1.18-.85-1.18s-1.46.78-1.46,2v2.48h-.93V71.59c0-.66-.14-1.18-.85-1.18s-1.46.86-1.46,2v2.48h-.95V69.72h.92a8.29,8.29,0,0,1-.08,1.11h0a1.92,1.92,0,0,1,1.82-1.21,1.31,1.31,0,0,1,1.44,1.19,1.92,1.92,0,0,1,1.78-1.19c1,0,1.56.52,1.56,1.71v3.6Z"/><path class="cls-1" d="M128.46,75a6.5,6.5,0,0,1-1.8-.21V67.28h1v2.53a5,5,0,0,1-.1,1h0a1.8,1.8,0,0,1,1.72-1.16c1.23,0,1.93.86,1.93,2.46A2.61,2.61,0,0,1,128.46,75Zm.57-4.6c-.94,0-1.42,1.1-1.42,2v1.73a2.8,2.8,0,0,0,.92.13c1,0,1.66-.6,1.66-2.1C130.19,71.05,129.82,70.41,129,70.41Z"/><path class="cls-1" d="M135.86,74.94a6.79,6.79,0,0,1,.08-1.1h0a1.91,1.91,0,0,1-1.84,1.2c-1.19,0-1.56-.75-1.56-1.67V69.72h.94v3.36c0,.74.2,1.18.89,1.18.86,0,1.48-.88,1.48-2v-2.5h.94v5.22Z"/><path class="cls-1" d="M141.13,70.56c-1.1-.2-1.63.61-1.63,2.28v2.1h-.94V69.72h.91a7.27,7.27,0,0,1-.11,1.24h0a1.65,1.65,0,0,1,1.79-1.33Z"/><path class="cls-1" d="M143.9,77.63c-1.34,0-2.19-.56-2.19-1.57a1.64,1.64,0,0,1,.87-1.38.85.85,0,0,1-.52-.78,1,1,0,0,1,.58-.88,1.58,1.58,0,0,1-.76-1.44,2,2,0,0,1,2.21-2,3,3,0,0,1,.74.09h1.77v.75h-.86a1.21,1.21,0,0,1,.42,1c0,1.07-.72,1.88-2.2,1.88a2,2,0,0,1-.56-.07.52.52,0,0,0-.34.44c0,.3.26.39.9.41l.95,0c1.12,0,1.75.57,1.75,1.51C146.66,76.75,145.54,77.63,143.9,77.63Zm.74-2.71-1,0h-.31a1.33,1.33,0,0,0-.67,1c0,.62.59,1,1.41,1,1.06,0,1.65-.48,1.65-1.12S145.37,74.94,144.64,74.92Zm-.59-4.59a1.14,1.14,0,0,0-1.24,1.17,1.21,1.21,0,1,0,1.24-1.17Z"/><path class="cls-2" d="M150.37,77.53V67h.75V77.53Z"/><path class="cls-1" d="M157.24,75l-1.81,0V67.85c.52,0,1.22,0,2.07,0,1.52,0,2.27.64,2.27,1.7a1.7,1.7,0,0,1-1.22,1.65v0A1.6,1.6,0,0,1,160,72.82C160,73.79,159.34,75,157.24,75Zm.1-6.38-.94,0v2.3H157c1.16,0,1.72-.46,1.72-1.24S158.42,68.59,157.34,68.59Zm-.28,3h-.66v2.49c.19,0,.6.06.9.06,1.16,0,1.67-.58,1.67-1.33S158.21,71.64,157.06,71.64Z"/><path class="cls-1" d="M165.34,72.32h-3.41c0,1.36.52,2,1.65,2a3.82,3.82,0,0,0,1.49-.31l.14.75a5,5,0,0,1-1.81.33c-1.58,0-2.44-.84-2.44-2.68,0-1.56.87-2.73,2.35-2.73a1.93,1.93,0,0,1,2.07,2.14A4.16,4.16,0,0,1,165.34,72.32Zm-2.1-2a1.34,1.34,0,0,0-1.28,1.3h2.45A1.14,1.14,0,0,0,163.24,70.34Z"/><path class="cls-1" d="M169.32,70.56c-1.1-.2-1.62.61-1.62,2.28v2.1h-.95V69.72h.91a7.27,7.27,0,0,1-.11,1.24h0a1.66,1.66,0,0,1,1.8-1.33Z"/><path class="cls-1" d="M173.82,74.94a6.79,6.79,0,0,1,.08-1.1h0A1.91,1.91,0,0,1,172,75c-1.19,0-1.56-.75-1.56-1.67V69.72h.93v3.36c0,.74.21,1.18.89,1.18.87,0,1.49-.88,1.49-2v-2.5h.94v5.22Z"/><path class="cls-1" d="M179.55,68.1a2.22,2.22,0,0,0-.77-.12c-.74,0-1.07.42-1.07,1.34v.4h1.45v.74h-1.45v4.48h-.94V70.46H175.7v-.74h1.07v-.38c0-1.44.7-2.13,2-2.13a4,4,0,0,1,.86.1Z"/><path class="cls-1" d="M180.85,75a4.53,4.53,0,0,1-1.15-.14l.08-.84a3.19,3.19,0,0,0,1.16.21c.67,0,1.13-.31,1.13-.8,0-1.17-2.43-.44-2.43-2.28,0-.89.7-1.56,2.08-1.56a5.67,5.67,0,0,1,1,.1l-.07.78a3.75,3.75,0,0,0-1-.16c-.69,0-1,.3-1,.75,0,1.15,2.44.49,2.44,2.27C183.06,74.32,182.22,75,180.85,75Z"/><path class="cls-1" d="M186.27,75a6.5,6.5,0,0,1-1.8-.21V67.28h.95v2.53a4.31,4.31,0,0,1-.1,1h0a1.78,1.78,0,0,1,1.72-1.16c1.22,0,1.92.86,1.92,2.46A2.61,2.61,0,0,1,186.27,75Zm.58-4.6c-.95,0-1.43,1.1-1.43,2v1.73a2.8,2.8,0,0,0,.92.13c1,0,1.66-.6,1.66-2.1C188,71.05,187.63,70.41,186.85,70.41Z"/><path class="cls-1" d="M190.8,68.68a.61.61,0,0,1-.62-.6.62.62,0,0,1,.62-.62.61.61,0,1,1,0,1.22Zm-.47,6.26V69.72h.95v5.22Z"/><path class="cls-1" d="M193.06,74.94V67.28H194v7.66Z"/><path class="cls-1" d="M198.94,74.94a5.55,5.55,0,0,1,.09-1.06h0A1.85,1.85,0,0,1,197.25,75c-1.28,0-1.92-.94-1.92-2.46a2.61,2.61,0,0,1,2.7-2.93c.28,0,.57,0,.88,0V67.28h1v7.66Zm0-4.43a4.27,4.27,0,0,0-.92-.11c-1,0-1.66.59-1.66,2.09,0,1.13.37,1.77,1.15,1.77,1,0,1.43-1.1,1.43-2Z"/><path class="cls-1" d="M205,74.94a6.79,6.79,0,0,1,.08-1.1h0a1.91,1.91,0,0,1-1.83,1.2c-1.2,0-1.57-.75-1.57-1.67V69.72h.93v3.36c0,.74.22,1.18.9,1.18.86,0,1.48-.88,1.48-2v-2.5h.94v5.22Z"/><path class="cls-1" d="M211,74.94V71.58c0-.73-.21-1.17-.9-1.17-.86,0-1.48.88-1.48,2v2.5h-.94V69.72h.91a6.91,6.91,0,0,1-.08,1.11h0a1.9,1.9,0,0,1,1.84-1.2c1.19,0,1.57.74,1.57,1.67v3.64Z"/><path class="cls-1" d="M215.44,77.63c-1.35,0-2.2-.56-2.2-1.57a1.64,1.64,0,0,1,.87-1.38.84.84,0,0,1-.51-.78,1,1,0,0,1,.58-.88,1.58,1.58,0,0,1-.77-1.44,2,2,0,0,1,2.21-2,2.94,2.94,0,0,1,.74.09h1.77v.75h-.86a1.18,1.18,0,0,1,.42,1c0,1.07-.72,1.88-2.2,1.88a2,2,0,0,1-.56-.07.51.51,0,0,0-.33.44c0,.3.26.39.89.41l1,0c1.12,0,1.75.57,1.75,1.51C218.2,76.75,217.07,77.63,215.44,77.63Zm.73-2.71-1,0h-.3a1.3,1.3,0,0,0-.67,1c0,.62.59,1,1.4,1,1.06,0,1.65-.48,1.65-1.12S216.91,74.94,216.17,74.92Zm-.59-4.59a1.13,1.13,0,0,0-1.23,1.17,1.06,1.06,0,0,0,1.2,1.14,1.16,1.16,0,1,0,0-2.31Z"/><path class="cls-1" d="M220.24,75a4.67,4.67,0,0,1-1.16-.14l.08-.84a3.19,3.19,0,0,0,1.16.21c.67,0,1.13-.31,1.13-.8,0-1.17-2.42-.44-2.42-2.28,0-.89.69-1.56,2.08-1.56a5.86,5.86,0,0,1,1,.1l-.08.78a3.69,3.69,0,0,0-1-.16c-.69,0-1,.3-1,.75,0,1.15,2.44.49,2.44,2.27C222.44,74.32,221.6,75,220.24,75Z"/><path class="cls-1" d="M229.39,74.94h-1.06l-1-3.08c-.1-.32-.2-.67-.29-1h0c-.11.46-.23.87-.37,1.31l-.87,2.8H224.7l-1.61-5.22h1l.8,2.79c.13.48.27.95.38,1.36h0c.1-.46.23-.91.35-1.34l.9-2.81h1l.91,2.77c.2.66.3,1,.4,1.39h0c.1-.44.21-.82.35-1.34l.84-2.82h1Z"/><path class="cls-1" d="M236,72.32H232.6c0,1.36.52,2,1.65,2a3.79,3.79,0,0,0,1.49-.31l.14.75a5,5,0,0,1-1.81.33c-1.58,0-2.44-.84-2.44-2.68,0-1.56.87-2.73,2.35-2.73a1.93,1.93,0,0,1,2.07,2.14C236.05,71.9,236,72.11,236,72.32Zm-2.1-2a1.34,1.34,0,0,0-1.29,1.3h2.45A1.13,1.13,0,0,0,233.92,70.34Z"/><path class="cls-1" d="M240,70.56c-1.1-.2-1.62.61-1.62,2.28v2.1h-1V69.72h.92a7.37,7.37,0,0,1-.12,1.24h0a1.66,1.66,0,0,1,1.8-1.33Z"/><path class="cls-1" d="M244,74.94l-1.93-2.69v2.69h-.95V67.28h.95V72l1.83-2.29h1.15l-2,2.39,2.16,2.83Z"/><path class="cls-1" d="M253.19,74.94V71.68h-3.61v3.26h-1V67.85h1v3h3.61v-3h1v7.09Z"/><path class="cls-1" d="M258.73,74.94a6.77,6.77,0,0,1,0-1h0A1.86,1.86,0,0,1,257,75a1.35,1.35,0,0,1-1.44-1.41c0-1.12,1.14-1.8,3.14-1.8v-.24c0-.83-.29-1.23-1.11-1.23a4.11,4.11,0,0,0-1.57.38l-.18-.74a5.11,5.11,0,0,1,1.88-.38c1.46,0,1.92.7,1.92,1.82v2c0,.49,0,1,0,1.5Zm-.05-2.45c-1.72,0-2.21.48-2.21,1a.77.77,0,0,0,.8.8,1.57,1.57,0,0,0,1.41-1.66Z"/><path class="cls-1" d="M267.91,74.94V71.59c0-.71-.16-1.18-.85-1.18s-1.45.78-1.45,2v2.48h-.94V71.59c0-.66-.14-1.18-.85-1.18s-1.46.86-1.46,2v2.48h-.94V69.72h.91a8.27,8.27,0,0,1-.07,1.11h0a1.9,1.9,0,0,1,1.81-1.21,1.29,1.29,0,0,1,1.44,1.19,1.93,1.93,0,0,1,1.78-1.19c1,0,1.56.52,1.56,1.71v3.6Z"/><path class="cls-1" d="M272.44,75a6.42,6.42,0,0,1-1.79-.21V67.28h.94v2.53a5,5,0,0,1-.09,1h0a1.78,1.78,0,0,1,1.72-1.16c1.23,0,1.92.86,1.92,2.46A2.61,2.61,0,0,1,272.44,75Zm.58-4.6c-.95,0-1.43,1.1-1.43,2v1.73a2.84,2.84,0,0,0,.92.13c1,0,1.66-.6,1.66-2.1C274.17,71.05,273.8,70.41,273,70.41Z"/><path class="cls-1" d="M279.84,74.94a6.8,6.8,0,0,1,.09-1.1h0a1.93,1.93,0,0,1-1.84,1.2c-1.2,0-1.56-.75-1.56-1.67V69.72h.93v3.36c0,.74.21,1.18.89,1.18.86,0,1.48-.88,1.48-2v-2.5h.95v5.22Z"/><path class="cls-1" d="M285.11,70.56c-1.1-.2-1.62.61-1.62,2.28v2.1h-.95V69.72h.92a7.37,7.37,0,0,1-.12,1.24h0a1.66,1.66,0,0,1,1.8-1.33Z"/><path class="cls-1" d="M287.89,77.63c-1.35,0-2.2-.56-2.2-1.57a1.64,1.64,0,0,1,.87-1.38.84.84,0,0,1-.51-.78,1,1,0,0,1,.58-.88,1.56,1.56,0,0,1-.77-1.44,2,2,0,0,1,2.22-2,2.92,2.92,0,0,1,.73.09h1.77v.75h-.86a1.18,1.18,0,0,1,.42,1c0,1.07-.72,1.88-2.2,1.88a2,2,0,0,1-.56-.07.51.51,0,0,0-.33.44c0,.3.26.39.89.41l.95,0c1.13,0,1.76.57,1.76,1.51C290.65,76.75,289.53,77.63,287.89,77.63Zm.73-2.71-1,0h-.3a1.3,1.3,0,0,0-.67,1c0,.62.58,1,1.4,1,1.07,0,1.65-.48,1.65-1.12S289.36,74.94,288.62,74.92ZM288,70.33a1.14,1.14,0,0,0-1.24,1.17A1.07,1.07,0,0,0,288,72.64a1.16,1.16,0,1,0,0-2.31Z"/><path class="cls-1" d="M2.7,87l-1.81,0V79.85c.52,0,1.22,0,2.07,0,1.52,0,2.27.64,2.27,1.7A1.7,1.7,0,0,1,4,83.17v0a1.6,1.6,0,0,1,1.44,1.63C5.45,85.79,4.8,87,2.7,87Zm.1-6.38-.94,0v2.3H2.5c1.16,0,1.72-.46,1.72-1.24S3.88,80.59,2.8,80.59Zm-.28,3H1.86v2.49c.19,0,.6.06.9.06,1.16,0,1.67-.58,1.67-1.33S3.67,83.64,2.52,83.64Z"/><path class="cls-1" d="M10.8,84.32H7.39c0,1.36.52,2,1.65,2A3.82,3.82,0,0,0,10.53,86l.14.75A5,5,0,0,1,8.86,87c-1.58,0-2.44-.84-2.44-2.68,0-1.56.87-2.73,2.35-2.73a1.93,1.93,0,0,1,2.07,2.14C10.84,83.9,10.82,84.11,10.8,84.32Zm-2.1-2a1.34,1.34,0,0,0-1.28,1.3H9.87A1.14,1.14,0,0,0,8.7,82.34Z"/><path class="cls-1" d="M14.78,82.56c-1.1-.2-1.62.61-1.62,2.28v2.1h-.95V81.72h.91A7.27,7.27,0,0,1,13,83h0a1.66,1.66,0,0,1,1.8-1.33Z"/><path class="cls-1" d="M19.28,86.94a6.79,6.79,0,0,1,.08-1.1h0A1.91,1.91,0,0,1,17.5,87c-1.19,0-1.56-.75-1.56-1.67V81.72h.93v3.36c0,.74.21,1.18.9,1.18.86,0,1.48-.88,1.48-2v-2.5h.94v5.22Z"/><path class="cls-1" d="M25.44,86.94V80.05a5.46,5.46,0,0,0-.9-.07c-.93,0-1.37.37-1.37,1.23v.51h1.42v.74H23.17v4.48h-.94V82.46H21.16v-.74h1.07v-.6c0-1.17.74-1.91,2.4-1.91a12.24,12.24,0,0,1,1.76.16v7.57Z"/><path class="cls-1" d="M28.64,80.68a.61.61,0,0,1-.63-.6.63.63,0,0,1,.63-.62.61.61,0,1,1,0,1.22Zm-.47,6.26V81.72h.95v5.22Z"/><path class="cls-1" d="M32.73,87c-1.25,0-2.29-.59-2.29-2.51,0-1.68.86-2.87,2.54-2.87a3.61,3.61,0,0,1,1.28.22l-.18.81a3.06,3.06,0,0,0-1.18-.24c-.95,0-1.46.8-1.46,1.95s.32,1.83,1.48,1.83A2.79,2.79,0,0,0,34.13,86l.15.79A4.32,4.32,0,0,1,32.73,87Z"/><path class="cls-1" d="M38.79,86.94V83.58c0-.73-.2-1.17-.9-1.17-.86,0-1.48.88-1.48,2v2.5h-.94V79.28h.94v2.48a4.82,4.82,0,0,1-.09,1h0a1.88,1.88,0,0,1,1.82-1.17c1.19,0,1.57.74,1.57,1.67v3.64Z"/><path class="cls-1" d="M45.43,84.32H42c0,1.36.51,2,1.65,2A3.82,3.82,0,0,0,45.16,86l.14.75a5,5,0,0,1-1.81.33C41.9,87,41,86.2,41,84.36c0-1.56.88-2.73,2.36-2.73a1.93,1.93,0,0,1,2.06,2.14C45.46,83.9,45.45,84.11,45.43,84.32Zm-2.1-2a1.34,1.34,0,0,0-1.28,1.3H44.5A1.14,1.14,0,0,0,43.33,82.34Z"/><path class="cls-1" d="M47.68,87a4.67,4.67,0,0,1-1.16-.14l.09-.84a3.13,3.13,0,0,0,1.15.21c.68,0,1.14-.31,1.14-.8,0-1.17-2.43-.44-2.43-2.28,0-.89.7-1.56,2.08-1.56a5.76,5.76,0,0,1,1,.1l-.07.78a3.81,3.81,0,0,0-1-.16c-.7,0-1,.3-1,.75,0,1.15,2.43.49,2.43,2.27C49.88,86.32,49,87,47.68,87Z"/><path class="cls-1" d="M55.6,80.66v6.28h-1V80.66h-2v-.81h5v.81Z"/><path class="cls-1" d="M60.49,82.56c-1.1-.2-1.63.61-1.63,2.28v2.1h-.94V81.72h.91A7.27,7.27,0,0,1,58.72,83h0a1.65,1.65,0,0,1,1.79-1.33Z"/><path class="cls-1" d="M64.22,86.94a6.77,6.77,0,0,1,0-1h0A1.86,1.86,0,0,1,62.47,87,1.35,1.35,0,0,1,61,85.63c0-1.12,1.14-1.8,3.13-1.8v-.24c0-.83-.28-1.23-1.1-1.23a4.11,4.11,0,0,0-1.57.38L61.31,82a5.11,5.11,0,0,1,1.88-.38c1.46,0,1.92.7,1.92,1.82v2c0,.49,0,1,0,1.5Zm-.06-2.45c-1.71,0-2.2.48-2.2,1a.77.77,0,0,0,.8.8,1.56,1.56,0,0,0,1.4-1.66Z"/><path class="cls-1" d="M67.38,80.68a.61.61,0,0,1-.63-.6.62.62,0,0,1,.63-.62.61.61,0,1,1,0,1.22Zm-.47,6.26V81.72h.94v5.22Z"/><path class="cls-1" d="M73,86.94V83.58c0-.73-.2-1.17-.89-1.17-.86,0-1.48.88-1.48,2v2.5h-.94V81.72h.91a5.94,5.94,0,0,1-.09,1.11h0a1.9,1.9,0,0,1,1.83-1.2c1.2,0,1.58.74,1.58,1.67v3.64Z"/><path class="cls-1" d="M76.15,80.68a.61.61,0,0,1-.63-.6.62.62,0,0,1,.63-.62.61.61,0,1,1,0,1.22Zm-.48,6.26V81.72h1v5.22Z"/><path class="cls-1" d="M81.72,86.94V83.58c0-.73-.2-1.17-.89-1.17-.86,0-1.48.88-1.48,2v2.5H78.4V81.72h.92a5.94,5.94,0,0,1-.09,1.11h0a1.92,1.92,0,0,1,1.84-1.2c1.2,0,1.58.74,1.58,1.67v3.64Z"/><path class="cls-1" d="M86.16,89.63c-1.34,0-2.19-.56-2.19-1.57a1.64,1.64,0,0,1,.87-1.38.83.83,0,0,1-.51-.78A1,1,0,0,1,84.9,85a1.58,1.58,0,0,1-.76-1.44,2,2,0,0,1,2.21-2,3.06,3.06,0,0,1,.74.09h1.77v.75H88a1.21,1.21,0,0,1,.42,1c0,1.07-.73,1.88-2.21,1.88a2,2,0,0,1-.55-.07.52.52,0,0,0-.34.44c0,.3.27.39.89.41l1,0c1.12,0,1.75.57,1.75,1.51C88.92,88.75,87.8,89.63,86.16,89.63Zm.74-2.71-1,0h-.3a1.31,1.31,0,0,0-.68,1c0,.62.59,1,1.41,1,1.06,0,1.65-.48,1.65-1.12S87.63,86.94,86.9,86.92Zm-.59-4.59a1.14,1.14,0,0,0-1.24,1.17,1.21,1.21,0,1,0,1.24-1.17Z"/><path class="cls-1" d="M91,87a4.53,4.53,0,0,1-1.15-.14l.08-.84a3.17,3.17,0,0,0,1.15.21c.68,0,1.14-.31,1.14-.8,0-1.17-2.43-.44-2.43-2.28,0-.89.7-1.56,2.08-1.56a5.76,5.76,0,0,1,1,.1l-.07.78a3.81,3.81,0,0,0-1-.16c-.69,0-1,.3-1,.75,0,1.15,2.44.49,2.44,2.27C93.17,86.32,92.33,87,91,87Z"/><path class="cls-1" d="M94.19,86.94v-.67l2.5-3.73-1.37,0H94.25v-.84H97.8v.66l-2.47,3.71,1.42,0h1.1v.87Z"/><path class="cls-1" d="M103.1,84.32H99.69c0,1.36.51,2,1.64,2a3.79,3.79,0,0,0,1.49-.31l.14.75a4.89,4.89,0,0,1-1.8.33c-1.59,0-2.45-.84-2.45-2.68,0-1.56.87-2.73,2.35-2.73a1.93,1.93,0,0,1,2.07,2.14C103.13,83.9,103.12,84.11,103.1,84.32Zm-2.1-2a1.33,1.33,0,0,0-1.28,1.3h2.44A1.13,1.13,0,0,0,101,82.34Z"/><path class="cls-1" d="M107.82,86.94V83.58c0-.73-.2-1.17-.89-1.17-.86,0-1.48.88-1.48,2v2.5h-.94V81.72h.91a6.91,6.91,0,0,1-.08,1.11h0a1.9,1.9,0,0,1,1.83-1.2c1.2,0,1.58.74,1.58,1.67v3.64Z"/><path class="cls-1" d="M112,87c-1.07,0-1.39-.44-1.39-1.56v-3h-1.07v-.74h1.07V80l.94-.26v2h1.46v.74h-1.46v2.66c0,.87.17,1.1.75,1.1a2.24,2.24,0,0,0,.66-.09l.09.78A5,5,0,0,1,112,87Z"/><path class="cls-1" d="M116.91,82.56c-1.11-.2-1.63.61-1.63,2.28v2.1h-1V81.72h.92a6.46,6.46,0,0,1-.12,1.24h0a1.66,1.66,0,0,1,1.8-1.33Z"/><path class="cls-1" d="M121.4,86.94a6.79,6.79,0,0,1,.08-1.1h0a1.91,1.91,0,0,1-1.83,1.2c-1.2,0-1.57-.75-1.57-1.67V81.72H119v3.36c0,.74.21,1.18.89,1.18.86,0,1.48-.88,1.48-2v-2.5h.94v5.22Z"/><path class="cls-1" d="M130.6,86.94V83.59c0-.71-.17-1.18-.85-1.18s-1.46.78-1.46,2v2.48h-.94V83.59c0-.66-.13-1.18-.85-1.18s-1.46.86-1.46,2v2.48h-.94V81.72H125a8.27,8.27,0,0,1-.07,1.11h0a1.91,1.91,0,0,1,1.82-1.21,1.29,1.29,0,0,1,1.43,1.19A1.94,1.94,0,0,1,130,81.63c1,0,1.55.52,1.55,1.71v3.6Z"/><path class="cls-1" d="M140.2,86.94V83.68h-3.62v3.26h-1V79.85h1v3h3.62v-3h1v7.09Z"/><path class="cls-1" d="M145.73,86.94a6.77,6.77,0,0,1,.05-1h0A1.86,1.86,0,0,1,144,87a1.35,1.35,0,0,1-1.45-1.41c0-1.12,1.14-1.8,3.14-1.8v-.24c0-.83-.29-1.23-1.11-1.23a4.11,4.11,0,0,0-1.57.38l-.18-.74a5.11,5.11,0,0,1,1.88-.38c1.46,0,1.92.7,1.92,1.82v2c0,.49,0,1,0,1.5Zm0-2.45c-1.72,0-2.21.48-2.21,1a.77.77,0,0,0,.8.8,1.57,1.57,0,0,0,1.41-1.66Z"/><path class="cls-1" d="M154.92,86.94V83.59c0-.71-.17-1.18-.86-1.18s-1.45.78-1.45,2v2.48h-.94V83.59c0-.66-.13-1.18-.85-1.18s-1.46.86-1.46,2v2.48h-.94V81.72h.91a8.27,8.27,0,0,1-.07,1.11h0a1.9,1.9,0,0,1,1.81-1.21,1.29,1.29,0,0,1,1.44,1.19,1.94,1.94,0,0,1,1.79-1.19c1,0,1.55.52,1.55,1.71v3.6Z"/><path class="cls-1" d="M159.44,87a6.42,6.42,0,0,1-1.79-.21V79.28h.94v2.53a5,5,0,0,1-.09,1h0a1.78,1.78,0,0,1,1.72-1.16c1.23,0,1.92.86,1.92,2.46A2.61,2.61,0,0,1,159.44,87Zm.58-4.6c-1,0-1.43,1.1-1.43,2v1.73a2.9,2.9,0,0,0,.93.13c1,0,1.65-.6,1.65-2.1C161.17,83.05,160.81,82.41,160,82.41Z"/><path class="cls-1" d="M166.84,86.94a6.8,6.8,0,0,1,.09-1.1h0a1.93,1.93,0,0,1-1.84,1.2c-1.2,0-1.56-.75-1.56-1.67V81.72h.93v3.36c0,.74.21,1.18.89,1.18.86,0,1.48-.88,1.48-2v-2.5h.95v5.22Z"/><path class="cls-1" d="M172.12,82.56c-1.11-.2-1.63.61-1.63,2.28v2.1h-1V81.72h.92a6.46,6.46,0,0,1-.12,1.24h0a1.66,1.66,0,0,1,1.8-1.33Z"/><path class="cls-1" d="M174.89,89.63c-1.35,0-2.2-.56-2.2-1.57a1.64,1.64,0,0,1,.87-1.38.84.84,0,0,1-.51-.78,1,1,0,0,1,.58-.88,1.58,1.58,0,0,1-.77-1.44,2,2,0,0,1,2.22-2,2.92,2.92,0,0,1,.73.09h1.78v.75h-.87a1.18,1.18,0,0,1,.42,1c0,1.07-.72,1.88-2.2,1.88a2,2,0,0,1-.56-.07.51.51,0,0,0-.33.44c0,.3.26.39.89.41l1,0c1.12,0,1.75.57,1.75,1.51C177.65,88.75,176.53,89.63,174.89,89.63Zm.73-2.71-1,0h-.31a1.3,1.3,0,0,0-.67,1c0,.62.59,1,1.4,1,1.07,0,1.65-.48,1.65-1.12S176.36,86.94,175.62,86.92ZM175,82.33a1.14,1.14,0,0,0-1.24,1.17,1.06,1.06,0,0,0,1.2,1.14,1.16,1.16,0,1,0,0-2.31Z"/><path class="cls-2" d="M181.36,89.53V79h.74V89.53Z"/><path class="cls-1" d="M189.2,86.94a6.77,6.77,0,0,1,.05-1h0A1.86,1.86,0,0,1,187.46,87,1.36,1.36,0,0,1,186,85.63c0-1.12,1.14-1.8,3.14-1.8v-.24c0-.83-.29-1.23-1.11-1.23a4.11,4.11,0,0,0-1.57.38l-.18-.74a5.11,5.11,0,0,1,1.88-.38c1.46,0,1.92.7,1.92,1.82v2c0,.49,0,1,0,1.5Zm0-2.45c-1.71,0-2.21.48-2.21,1a.77.77,0,0,0,.8.8,1.57,1.57,0,0,0,1.41-1.66Z"/><path class="cls-1" d="M195.23,86.94a6.79,6.79,0,0,1,.08-1.1h0a1.93,1.93,0,0,1-1.84,1.2c-1.19,0-1.56-.75-1.56-1.67V81.72h.93v3.36c0,.74.21,1.18.89,1.18.87,0,1.49-.88,1.49-2v-2.5h.94v5.22Z"/><path class="cls-1" d="M198.77,87a4.67,4.67,0,0,1-1.16-.14l.08-.84a3.19,3.19,0,0,0,1.16.21c.67,0,1.13-.31,1.13-.8,0-1.17-2.42-.44-2.42-2.28,0-.89.69-1.56,2.08-1.56a5.65,5.65,0,0,1,1,.1l-.07.78a3.69,3.69,0,0,0-1-.16c-.69,0-1,.3-1,.75,0,1.15,2.44.49,2.44,2.27C201,86.32,200.13,87,198.77,87Z"/><path class="cls-1" d="M204.18,87a6.42,6.42,0,0,1-1.79-.21V79.28h.94v2.53a5,5,0,0,1-.09,1h0A1.78,1.78,0,0,1,205,81.63c1.23,0,1.92.86,1.92,2.46A2.61,2.61,0,0,1,204.18,87Zm.58-4.6c-.95,0-1.43,1.1-1.43,2v1.73a2.9,2.9,0,0,0,.93.13c1,0,1.65-.6,1.65-2.1C205.91,83.05,205.55,82.41,204.76,82.41Z"/><path class="cls-1" d="M208.25,86.94V79.28h.94v7.66Z"/><path class="cls-1" d="M211.45,80.68a.61.61,0,0,1-.63-.6.62.62,0,0,1,.63-.62.61.61,0,1,1,0,1.22ZM211,86.94V81.72h.94v5.22Z"/><path class="cls-1" d="M215.53,87c-1.25,0-2.29-.59-2.29-2.51,0-1.68.86-2.87,2.54-2.87a3.53,3.53,0,0,1,1.28.22l-.17.81a3.15,3.15,0,0,0-1.19-.24c-.94,0-1.46.8-1.46,1.95s.33,1.83,1.48,1.83a2.87,2.87,0,0,0,1.22-.26l.15.79A4.37,4.37,0,0,1,215.53,87Z"/><path class="cls-1" d="M221.15,86.94l-1.93-2.69v2.69h-.95V79.28h.95V84l1.83-2.29h1.15l-2,2.39,2.17,2.83Z"/><path class="cls-1" d="M229.06,86.94V83.58c0-.73-.2-1.17-.9-1.17-.86,0-1.48.88-1.48,2v2.5h-.94V79.28h.94v2.48a4.82,4.82,0,0,1-.09,1h0a1.88,1.88,0,0,1,1.82-1.17c1.19,0,1.57.74,1.57,1.67v3.64Z"/><path class="cls-1" d="M234.56,86.94a6.77,6.77,0,0,1,.05-1h0A1.86,1.86,0,0,1,232.81,87a1.35,1.35,0,0,1-1.44-1.41c0-1.12,1.14-1.8,3.14-1.8v-.24c0-.83-.29-1.23-1.11-1.23a4.11,4.11,0,0,0-1.57.38l-.18-.74a5.11,5.11,0,0,1,1.88-.38c1.46,0,1.92.7,1.92,1.82v2c0,.49,0,1,0,1.5Zm-.05-2.45c-1.72,0-2.21.48-2.21,1a.77.77,0,0,0,.8.8,1.57,1.57,0,0,0,1.41-1.66Z"/><path class="cls-1" d="M243.74,86.94V83.59c0-.71-.16-1.18-.85-1.18s-1.45.78-1.45,2v2.48h-.94V83.59c0-.66-.14-1.18-.85-1.18s-1.46.86-1.46,2v2.48h-.94V81.72h.91a8.27,8.27,0,0,1-.07,1.11h0a1.9,1.9,0,0,1,1.81-1.21,1.29,1.29,0,0,1,1.44,1.19,1.93,1.93,0,0,1,1.78-1.19c1,0,1.56.52,1.56,1.71v3.6Z"/><path class="cls-1" d="M248.27,87a6.42,6.42,0,0,1-1.79-.21V79.28h.94v2.53a5,5,0,0,1-.09,1h0a1.78,1.78,0,0,1,1.72-1.16c1.23,0,1.92.86,1.92,2.46A2.61,2.61,0,0,1,248.27,87Zm.58-4.6c-.95,0-1.43,1.1-1.43,2v1.73a2.84,2.84,0,0,0,.92.13c1,0,1.66-.6,1.66-2.1C250,83.05,249.63,82.41,248.85,82.41Z"/><path class="cls-1" d="M255.67,86.94a6.8,6.8,0,0,1,.09-1.1h0A1.93,1.93,0,0,1,253.9,87c-1.2,0-1.56-.75-1.56-1.67V81.72h.93v3.36c0,.74.21,1.18.89,1.18.86,0,1.48-.88,1.48-2v-2.5h.95v5.22Z"/><path class="cls-1" d="M260.94,82.56c-1.1-.2-1.62.61-1.62,2.28v2.1h-.95V81.72h.92a7.37,7.37,0,0,1-.12,1.24h0a1.66,1.66,0,0,1,1.8-1.33Z"/><path class="cls-1" d="M263.72,89.63c-1.35,0-2.2-.56-2.2-1.57a1.64,1.64,0,0,1,.87-1.38.84.84,0,0,1-.51-.78,1,1,0,0,1,.58-.88,1.56,1.56,0,0,1-.77-1.44,2,2,0,0,1,2.21-2,2.94,2.94,0,0,1,.74.09h1.77v.75h-.86a1.18,1.18,0,0,1,.42,1c0,1.07-.72,1.88-2.2,1.88a2,2,0,0,1-.56-.07.51.51,0,0,0-.33.44c0,.3.26.39.89.41l1,0c1.13,0,1.76.57,1.76,1.51C266.48,88.75,265.35,89.63,263.72,89.63Zm.73-2.71-1,0h-.3a1.3,1.3,0,0,0-.67,1c0,.62.58,1,1.4,1,1.06,0,1.65-.48,1.65-1.12S265.19,86.94,264.45,86.92Zm-.59-4.59a1.14,1.14,0,0,0-1.24,1.17,1.07,1.07,0,0,0,1.21,1.14,1.16,1.16,0,1,0,0-2.31Z"/><path class="cls-1" d="M2.43,96.25a5.52,5.52,0,0,1-.57,0v2.71h-1V91.85c.53,0,1.1,0,1.75,0,1.62,0,2.53.82,2.53,2.08A2.47,2.47,0,0,1,2.43,96.25Zm.1-3.64H1.86v2.79a3.58,3.58,0,0,0,.58,0c1.05,0,1.72-.58,1.72-1.47S3.64,92.61,2.53,92.61Z"/><path class="cls-1" d="M10.11,96.32H6.7c0,1.36.51,2,1.65,2A3.82,3.82,0,0,0,9.84,98l.13.75a4.89,4.89,0,0,1-1.8.33c-1.59,0-2.45-.84-2.45-2.68,0-1.56.87-2.73,2.35-2.73a1.93,1.93,0,0,1,2.07,2.14C10.14,95.9,10.13,96.11,10.11,96.32Zm-2.1-2a1.34,1.34,0,0,0-1.28,1.3H9.18A1.14,1.14,0,0,0,8,94.34Z"/><path class="cls-1" d="M14.09,94.56c-1.1-.2-1.63.61-1.63,2.28v2.1h-.94V93.72h.91A7.27,7.27,0,0,1,12.32,95h0a1.65,1.65,0,0,1,1.79-1.33Z"/><path class="cls-1" d="M16.09,99a4.67,4.67,0,0,1-1.16-.14l.09-.84a3.09,3.09,0,0,0,1.15.21c.67,0,1.13-.31,1.13-.8,0-1.17-2.42-.44-2.42-2.28,0-.89.69-1.56,2.08-1.56a5.65,5.65,0,0,1,1,.1l-.07.78a3.69,3.69,0,0,0-1-.16c-.69,0-1,.3-1,.75,0,1.15,2.44.49,2.44,2.27C18.29,98.32,17.45,99,16.09,99Z"/><path class="cls-1" d="M21.53,99a5.14,5.14,0,0,1-.88-.06v2.59h-.94V93.72h.91a6.23,6.23,0,0,1-.08,1.06h0a1.8,1.8,0,0,1,1.75-1.16c1.22,0,1.91.86,1.91,2.46C24.22,97.94,23.23,99,21.53,99Zm.55-4.59c-.94,0-1.43,1.1-1.43,2v1.72a2.94,2.94,0,0,0,.93.13c1,0,1.66-.6,1.66-2.1C23.24,95.05,22.87,94.41,22.08,94.41Z"/><path class="cls-1" d="M29.49,96.32H26.08c0,1.36.52,2,1.65,2A3.82,3.82,0,0,0,29.22,98l.14.75a5,5,0,0,1-1.81.33C26,99,25.1,98.2,25.1,96.36c0-1.56.88-2.73,2.36-2.73a1.93,1.93,0,0,1,2.06,2.14C29.52,95.9,29.51,96.11,29.49,96.32Zm-2.1-2a1.34,1.34,0,0,0-1.28,1.3h2.45A1.14,1.14,0,0,0,27.39,94.34Z"/><path class="cls-1" d="M33.78,98.94l-1.93-2.69v2.69h-1V91.28h1V96l1.83-2.29h1.15l-2,2.39L35,98.94Z"/><path class="cls-1" d="M37.68,99c-1.07,0-1.39-.44-1.39-1.56v-3H35.22v-.74h1.07V92l.94-.26v2h1.46v.74H37.23v2.66c0,.87.17,1.1.75,1.1a2.24,2.24,0,0,0,.66-.09l.09.78A5,5,0,0,1,37.68,99Z"/><path class="cls-1" d="M40.45,92.68a.61.61,0,0,1-.63-.6.62.62,0,0,1,.63-.62.61.61,0,1,1,0,1.22ZM40,98.94V93.72h1v5.22Z"/><path class="cls-1" d="M44.83,98.94h-1l-2-5.22H43l1.11,3.11c.11.34.22.66.3,1h0c.09-.31.19-.64.3-1l1.13-3.14h1Z"/><path class="cls-1" d="M47.15,96.32v-.78h2.47v.78Z"/><path class="cls-1" d="M54.78,98.94,52,95.44v3.5H51V91.85h1v3.34l2.82-3.34H56l-3,3.43,3.11,3.66Z"/><path class="cls-1" d="M58.6,99c-1.42,0-2.34-.82-2.34-2.66a2.54,2.54,0,0,1,2.54-2.75c1.33,0,2.35.73,2.35,2.61A2.58,2.58,0,0,1,58.6,99Zm.12-4.62c-.75,0-1.47.57-1.47,1.86s.51,2,1.47,2c.77,0,1.44-.61,1.44-1.94S59.68,94.42,58.72,94.42Z"/><path class="cls-1" d="M65.78,98.94V95.58c0-.73-.2-1.17-.89-1.17-.86,0-1.48.88-1.48,2v2.5h-.95V93.72h.92a5.94,5.94,0,0,1-.09,1.11h0a1.92,1.92,0,0,1,1.84-1.2c1.2,0,1.58.74,1.58,1.67v3.64Z"/><path class="cls-1" d="M70,99c-1.07,0-1.39-.44-1.39-1.56v-3H67.54v-.74h1.07V92l.94-.26v2H71v.74H69.55v2.66c0,.87.17,1.1.75,1.1a2.24,2.24,0,0,0,.66-.09l.09.78A5,5,0,0,1,70,99Z"/><path class="cls-1" d="M74.13,99c-1.42,0-2.34-.82-2.34-2.66a2.54,2.54,0,0,1,2.54-2.75c1.33,0,2.35.73,2.35,2.61A2.58,2.58,0,0,1,74.13,99Zm.11-4.62c-.74,0-1.47.57-1.47,1.86s.52,2,1.47,2c.78,0,1.45-.61,1.45-1.94S75.21,94.42,74.24,94.42Z"/><path class="cls-1" d="M80.57,94.56c-1.11-.2-1.63.61-1.63,2.28v2.1H78V93.72h.92A6.46,6.46,0,0,1,78.79,95h0a1.66,1.66,0,0,1,1.8-1.33Z"/><path class="cls-1" d="M88.59,98.94V95.68H85v3.26H84V91.85h1v3h3.61v-3h1v7.09Z"/><path class="cls-1" d="M94.12,98.94a6.77,6.77,0,0,1,0-1h0A1.86,1.86,0,0,1,92.38,99a1.36,1.36,0,0,1-1.45-1.41c0-1.12,1.14-1.8,3.14-1.8v-.24c0-.83-.28-1.23-1.1-1.23a4.12,4.12,0,0,0-1.58.38L91.21,94a5.15,5.15,0,0,1,1.88-.38c1.46,0,1.92.7,1.92,1.82v2c0,.49,0,1,0,1.5Zm-.05-2.45c-1.71,0-2.21.48-2.21,1a.77.77,0,0,0,.8.8,1.57,1.57,0,0,0,1.41-1.66Z"/><path class="cls-1" d="M103.31,98.94V95.59c0-.71-.17-1.18-.85-1.18s-1.46.78-1.46,2v2.48h-.94V95.59c0-.66-.13-1.18-.85-1.18s-1.46.86-1.46,2v2.48h-.94V93.72h.91a8.27,8.27,0,0,1-.07,1.11h0a1.91,1.91,0,0,1,1.82-1.21,1.29,1.29,0,0,1,1.43,1.19,2,2,0,0,1,1.79-1.19c1,0,1.55.52,1.55,1.71v3.6Z"/><path class="cls-1" d="M107.83,99A6.47,6.47,0,0,1,106,98.8V91.28H107v2.53a5,5,0,0,1-.09,1h0a1.79,1.79,0,0,1,1.72-1.16c1.23,0,1.92.86,1.92,2.46A2.61,2.61,0,0,1,107.83,99Zm.58-4.6c-.94,0-1.43,1.1-1.43,2v1.73a2.9,2.9,0,0,0,.93.13c1,0,1.66-.6,1.66-2.1C109.57,95.05,109.2,94.41,108.41,94.41Z"/><path class="cls-1" d="M115.24,98.94a6.79,6.79,0,0,1,.08-1.1h0a1.92,1.92,0,0,1-1.84,1.2c-1.19,0-1.56-.75-1.56-1.67V93.72h.93v3.36c0,.74.21,1.18.9,1.18.86,0,1.48-.88,1.48-2v-2.5h.94v5.22Z"/><path class="cls-1" d="M120.51,94.56c-1.1-.2-1.63.61-1.63,2.28v2.1h-.94V93.72h.91a6.46,6.46,0,0,1-.12,1.24h0a1.67,1.67,0,0,1,1.8-1.33Z"/><path class="cls-1" d="M123.28,101.63c-1.34,0-2.19-.56-2.19-1.57a1.62,1.62,0,0,1,.87-1.38.84.84,0,0,1-.52-.78A1,1,0,0,1,122,97a1.58,1.58,0,0,1-.77-1.44,2,2,0,0,1,2.22-2,2.92,2.92,0,0,1,.73.09H126v.75h-.86a1.21,1.21,0,0,1,.42,1c0,1.07-.73,1.88-2.21,1.88a2,2,0,0,1-.55-.07.52.52,0,0,0-.34.44c0,.3.26.39.89.41l1,0c1.12,0,1.75.57,1.75,1.51C126,100.75,124.92,101.63,123.28,101.63Zm.74-2.71-1,0h-.31a1.3,1.3,0,0,0-.67,1c0,.62.59,1,1.41,1,1.06,0,1.65-.48,1.65-1.12S124.75,98.94,124,98.92Zm-.59-4.59a1.14,1.14,0,0,0-1.24,1.17,1.21,1.21,0,1,0,1.24-1.17Z"/></svg>